<svg width="71" height="152" viewBox="0 0 71 152" fill="none" xmlns="http://www.w3.org/2000/svg">
<path d="M53.922 14.117L54.3137 13.8063L53.922 14.117ZM0.112969 151.441L5.87715 151.113L2.71105 146.285L0.112969 151.441ZM36.76 0.371536C36.5216 0.232322 36.2154 0.312795 36.0762 0.551278C35.9369 0.789761 36.0174 1.09594 36.2559 1.23516L36.76 0.371536ZM53.5302 14.4277C58.6594 20.8953 60.9506 26.0269 61.2816 30.141C61.6096 34.2178 60.0174 37.3624 57.1962 39.9043C54.3545 42.4645 50.2727 44.4037 45.671 46.0066C41.0747 47.6076 36.0128 48.856 31.2324 50.0622C26.4687 51.2642 21.969 52.4278 18.5565 53.8565C16.849 54.5714 15.3845 55.3642 14.2863 56.282C13.185 57.2023 12.425 58.2719 12.1894 59.5365C11.9536 60.8022 12.2587 62.1794 13.1204 63.6833C13.9798 65.1829 15.4087 66.8379 17.4762 68.6877C21.6113 72.3874 28.3864 76.9403 38.5516 82.6519L39.0414 81.78C28.8935 76.0782 22.1951 71.5679 18.143 67.9424C16.1168 66.1296 14.7735 64.5566 13.9881 63.186C13.2051 61.8197 12.9926 60.6847 13.1725 59.7196C13.3525 58.7534 13.9412 57.8735 14.9275 57.0493C15.917 56.2224 17.279 55.4755 18.9427 54.779C22.2727 53.3848 26.6943 52.2387 31.4771 51.0318C36.2432 49.8292 41.353 48.5695 46 46.9509C50.6415 45.3342 54.8745 43.3421 57.8656 40.6472C60.877 37.9339 62.6355 34.4993 62.2784 30.0608C61.9243 25.6594 59.4947 20.3392 54.3137 13.8063L53.5302 14.4277ZM38.5516 82.6519C48.0973 88.0154 55.0711 92.8636 59.9284 97.2616C64.7897 101.663 67.4992 105.586 68.5717 109.091C69.6367 112.572 69.1005 115.682 67.3769 118.524C65.6411 121.386 62.6906 123.99 58.9101 126.391C51.3468 131.194 40.6282 135.083 30.225 138.599C19.8624 142.101 9.78658 145.239 3.63796 148.534L4.11027 149.415C10.1631 146.172 20.1172 143.07 30.5452 139.546C40.9327 136.036 51.7654 132.113 59.4462 127.235C63.2878 124.795 66.3827 122.091 68.2319 119.042C70.0933 115.973 70.6818 112.57 69.5279 108.798C68.3815 105.051 65.5282 100.983 60.5996 96.5203C55.6669 92.054 48.6235 87.164 39.0414 81.78L38.5516 82.6519ZM54.3137 13.8063C52.4605 11.4695 49.2912 8.82672 45.9995 6.42351C42.698 4.01315 39.2343 1.81591 36.76 0.371536L36.2559 1.23516C38.705 2.66482 42.1396 4.84361 45.4098 7.23116C48.6899 9.62586 51.7658 12.2029 53.5302 14.4277L54.3137 13.8063Z" fill="#475658"/>
</svg>
