<svg width="19" height="24" viewBox="0 0 19 24" fill="none" xmlns="http://www.w3.org/2000/svg">
<path d="M9.47526 0C14.7085 0 18.9505 4.32989 18.9505 9.67158C18.9505 13.7584 16.1371 18.2123 10.5831 23.0809C10.2743 23.3516 9.88057 23.5004 9.47344 23.5C9.06632 23.4996 8.67283 23.3502 8.36447 23.0789L7.99712 22.7535C2.68903 18.012 0 13.6672 0 9.67158C0 4.32989 4.242 0 9.47526 0ZM9.47526 1.48794C7.34888 1.48794 5.30959 2.35014 3.80601 3.88487C2.30243 5.4196 1.45773 7.50114 1.45773 9.67158C1.45773 13.1454 3.93393 17.148 8.95436 21.6316L9.31685 21.952C9.36093 21.9907 9.41713 22.012 9.47526 22.012C9.53339 22.012 9.58959 21.9907 9.63367 21.952C14.8971 17.3374 17.4928 13.2277 17.4928 9.67158C17.4928 8.59689 17.2854 7.53272 16.8825 6.53983C16.4796 5.54695 15.889 4.64479 15.1445 3.88487C14.4 3.12495 13.5162 2.52214 12.5434 2.11088C11.5707 1.69961 10.5281 1.48794 9.47526 1.48794ZM9.47526 5.95174C10.4418 5.95174 11.3687 6.34365 12.0522 7.04126C12.7356 7.73886 13.1196 8.68502 13.1196 9.67158C13.1196 10.6581 12.7356 11.6043 12.0522 12.3019C11.3687 12.9995 10.4418 13.3914 9.47526 13.3914C8.50872 13.3914 7.58177 12.9995 6.89833 12.3019C6.21488 11.6043 5.83093 10.6581 5.83093 9.67158C5.83093 8.68502 6.21488 7.73886 6.89833 7.04126C7.58177 6.34365 8.50872 5.95174 9.47526 5.95174ZM9.47526 7.43968C8.89534 7.43968 8.33917 7.67482 7.9291 8.09338C7.51904 8.51195 7.28866 9.07964 7.28866 9.67158C7.28866 10.2635 7.51904 10.8312 7.9291 11.2498C8.33917 11.6683 8.89534 11.9035 9.47526 11.9035C10.0552 11.9035 10.6114 11.6683 11.0214 11.2498C11.4315 10.8312 11.6619 10.2635 11.6619 9.67158C11.6619 9.07964 11.4315 8.51195 11.0214 8.09338C10.6114 7.67482 10.0552 7.43968 9.47526 7.43968Z" fill="#D44B4B"/>
</svg>
