<svg width="23" height="24" viewBox="0 0 23 24" fill="none" xmlns="http://www.w3.org/2000/svg">
<path d="M11.5 0C17.8514 0 23 5.3724 23 12C23 18.6276 17.8514 24 11.5 24C5.14855 24 0 18.6276 0 12C0 5.3724 5.14855 0 11.5 0ZM11.5 1.674C8.87548 1.674 6.35846 2.76191 4.50265 4.69842C2.64683 6.63492 1.60425 9.26137 1.60425 12C1.60425 14.7386 2.64683 17.3651 4.50265 19.3016C6.35846 21.2381 8.87548 22.326 11.5 22.326C14.1245 22.326 16.6415 21.2381 18.4974 19.3016C20.3532 17.3651 21.3957 14.7386 21.3957 12C21.3957 9.26137 20.3532 6.63492 18.4974 4.69842C16.6415 2.76191 14.1245 1.674 11.5 1.674ZM10.4305 6.6972C10.8732 6.6972 11.232 7.0728 11.232 7.5348V13.3956H16.8486C17.0561 13.4038 17.2525 13.4956 17.3965 13.6516C17.5405 13.8077 17.621 14.0159 17.621 14.2326C17.621 14.4493 17.5405 14.6575 17.3965 14.8136C17.2525 14.9696 17.0561 15.0614 16.8486 15.0696H10.4305C10.2176 15.0696 10.0134 14.9814 9.86291 14.8243C9.71237 14.6672 9.6278 14.4541 9.6278 14.232V7.536C9.6278 7.0728 9.9866 6.6972 10.4305 6.6972Z" fill="#D44B4B"/>
</svg>
